                                                                        S0000001
1H,,1H;,8Hpart.mco,10Hglobal.tmp,21HMedcad by Materialise,              G0000001
24HMedical CAD Modelling sw,32,38,8,308,16,8Hpart.med,1,2,2HMM,3,0.5,   G0000002
13H250403.162933,9.9999999E-09,1000,2HPN,14HMaterialise nv,1,0;         G0000003
     106       1       0       1       0       0       0       000000000D0000001
     106       0       0       5      12                BRANCHES       0D0000002
     106       6       0       1       0       0       0       000000000D0000003
     106       0       0       2      12                BRANCHES       0D0000004
     106       8       0       1       0       0       0       000000000D0000005
     106       0       0       4      12                BRANCHES       0D0000006
     106      12       0       1       0       0       0       000000000D0000007
     106       0       0       3      12                BRANCHES       0D0000008
     106      15       0       1       0       0       0       000000000D0000009
     106       0       0       2      12                BRANCHES       0D0000010
     106      17       0       1       0       0       0       000000000D0000011
     106       0       0       4      12                BRANCHES       0D0000012
     106      21       0       1       0       0       0       000000000D0000013
     106       0       0       2      12                BRANCHES       0D0000014
     106      23       0       1       0       0       0       000000000D0000015
     106       0       0       5      12                BRANCHES       0D0000016
     106      28       0       1       0       0       0       000000000D0000017
     106       0       0       3      12                BRANCHES       0D0000018
     106      31       0       1       0       0       0       000000000D0000019
     106       0       0      11      12                BRANCHES       0D0000020
     106      42       0       1       0       0       0       000000000D0000021
     106       0       0       8      12                BRANCHES       0D0000022
     106      50       0       1       0       0       0       000000000D0000023
     106       0       0       2      12                BRANCHES       0D0000024
     106      52       0       1       0       0       0       000000000D0000025
     106       0       0       5      12                BRANCHES       0D0000026
     106      57       0       1       0       0       0       000000000D0000027
     106       0       0       2      12                BRANCHES       0D0000028
     106      59       0       1       0       0       0       000000000D0000029
     106       0       0       3      12                BRANCHES       0D0000030
     106      62       0       1       0       0       0       000000000D0000031
     106       0       0       3      12                BRANCHES       0D0000032
     106      65       0       1       0       0       0       000000000D0000033
     106       0       0       4      12                BRANCHES       0D0000034
     106      69       0       1       0       0       0       000000000D0000035
     106       0       0       3      12                BRANCHES       0D0000036
     106      72       0       1       0       0       0       000000000D0000037
     106       0       0       3      12                BRANCHES       0D0000038
     106      75       0       1       0       0       0       000000000D0000039
     106       0       0       2      12                BRANCHES       0D0000040
     106      77       0       1       0       0       0       000000000D0000041
     106       0       0       3      12                BRANCHES       0D0000042
     106      80       0       1       0       0       0       000000000D0000043
     106       0       0       6      12                BRANCHES       0D0000044
     106      86       0       1       0       0       0       000000000D0000045
     106       0       0       5      12                BRANCHES       0D0000046
     106      91       0       1       0       0       0       000000000D0000047
     106       0       0       3      12                BRANCHES       0D0000048
     106      94       0       1       0       0       0       000000000D0000049
     106       0       0       4      12                BRANCHES       0D0000050
     106      98       0       1       0       0       0       000000000D0000051
     106       0       0       4      12                BRANCHES       0D0000052
     106     102       0       1       0       0       0       000000000D0000053
     106       0       0       5      12                BRANCHES       0D0000054
     106     107       0       1       0       0       0       000000000D0000055
     106       0       0       6      12                BRANCHES       0D0000056
     106     113       0       1       0       0       0       000000000D0000057
     106       0       0       4      12                BRANCHES       0D0000058
     106     117       0       1       0       0       0       000000000D0000059
     106       0       0       7      12                BRANCHES       0D0000060
     106     124       0       1       0       0       0       000000000D0000061
     106       0       0       6      12                BRANCHES       0D0000062
     106     130       0       1       0       0       0       000000000D0000063
     106       0       0       4      12                BRANCHES       0D0000064
     106     134       0       1       0       0       0       000000000D0000065
     106       0       0       2      12                BRANCHES       0D0000066
     106     136       0       1       0       0       0       000000000D0000067
     106       0       0      10      12                BRANCHES       0D0000068
     106     146       0       1       0       0       0       000000000D0000069
     106       0       0       5      12                BRANCHES       0D0000070
     106     151       0       1       0       0       0       000000000D0000071
     106       0       0       7      12                BRANCHES       0D0000072
     106     158       0       1       0       0       0       000000000D0000073
     106       0       0       3      12                BRANCHES       0D0000074
     106     161       0       1       0       0       0       000000000D0000075
     106       0       0       6      12                BRANCHES       0D0000076
     106     167       0       1       0       0       0       000000000D0000077
     106       0       0       9      12                BRANCHES       0D0000078
     106     176       0       1       0       0       0       000000000D0000079
     106       0       0       7      12                BRANCHES       0D0000080
     106     183       0       1       0       0       0       000000000D0000081
     106       0       0       5      12                BRANCHES       0D0000082
     106     188       0       1       0       0       0       000000000D0000083
     106       0       0       5      12                BRANCHES       0D0000084
     106     193       0       1       0       0       0       000000000D0000085
     106       0       0       7      12                BRANCHES       0D0000086
     106     200       0       1       0       0       0       000000000D0000087
     106       0       0       4      12                BRANCHES       0D0000088
     106     204       0       1       0       0       0       000000000D0000089
     106       0       0       4      12                BRANCHES       0D0000090
     106     208       0       1       0       0       0       000000000D0000091
     106       0       0       6      12                BRANCHES       0D0000092
     106     214       0       1       0       0       0       000000000D0000093
     106       0       0       9      12                BRANCHES       0D0000094
     106     223       0       1       0       0       0       000000000D0000095
     106       0       0       4      12                BRANCHES       0D0000096
     106     227       0       1       0       0       0       000000000D0000097
     106       0       0       5      12                BRANCHES       0D0000098
     106     232       0       1       0       0       0       000000000D0000099
     106       0       0      10      12                BRANCHES       0D0000100
     106     242       0       1       0       0       0       000000000D0000101
     106       0       0       3      12                BRANCHES       0D0000102
     106     245       0       1       0       0       0       000000000D0000103
     106       0       0       7      12                BRANCHES       0D0000104
     106     252       0       1       0       0       0       000000000D0000105
     106       0       0       9      12                BRANCHES       0D0000106
     106     261       0       1       0       0       0       000000000D0000107
     106       0       0       8      12                BRANCHES       0D0000108
     106     269       0       1       0       0       0       000000000D0000109
     106       0       0       5      12                BRANCHES       0D0000110
     106     274       0       1       0       0       0       000000000D0000111
     106       0       0       7      12                BRANCHES       0D0000112
     106     281       0       1       0       0       0       000000000D0000113
     106       0       0       9      12                BRANCHES       0D0000114
     106     290       0       1       0       0       0       000000000D0000115
     106       0       0       7      12                BRANCHES       0D0000116
     106     297       0       1       0       0       0       000000000D0000117
     106       0       0       7      12                BRANCHES       0D0000118
     106     304       0       1       0       0       0       000000000D0000119
     106       0       0       5      12                BRANCHES       0D0000120
     106     309       0       1       0       0       0       000000000D0000121
     106       0       0       7      12                BRANCHES       0D0000122
     106     316       0       1       0       0       0       000000000D0000123
     106       0       0       6      12                BRANCHES       0D0000124
     106     322       0       1       0       0       0       000000000D0000125
     106       0       0       6      12                BRANCHES       0D0000126
     106     328       0       1       0       0       0       000000000D0000127
     106       0       0       5      12                BRANCHES       0D0000128
     106     333       0       1       0       0       0       000000000D0000129
     106       0       0       4      12                BRANCHES       0D0000130
     106     337       0       1       0       0       0       000000000D0000131
     106       0       0       9      12                BRANCHES       0D0000132
     106     346       0       1       0       0       0       000000000D0000133
     106       0       0       4      12                BRANCHES       0D0000134
     106     350       0       1       0       0       0       000000000D0000135
     106       0       0       8      12                BRANCHES       0D0000136
     106     358       0       1       0       0       0       000000000D0000137
     106       0       0       9      12                BRANCHES       0D0000138
     106     367       0       1       0       0       0       000000000D0000139
     106       0       0       8      12                BRANCHES       0D0000140
     106     375       0       1       0       0       0       000000000D0000141
     106       0       0       4      12                BRANCHES       0D0000142
     106     379       0       1       0       0       0       000000000D0000143
     106       0       0       6      12                BRANCHES       0D0000144
     106     385       0       1       0       0       0       000000000D0000145
     106       0       0       4      12                BRANCHES       0D0000146
     106     389       0       1       0       0       0       000000000D0000147
     106       0       0       6      12                BRANCHES       0D0000148
     106     395       0       1       0       0       0       000000000D0000149
     106       0       0       8      12                BRANCHES       0D0000150
     106     403       0       1       0       0       0       000000000D0000151
     106       0       0       4      12                BRANCHES       0D0000152
     106     407       0       1       0       0       0       000000000D0000153
     106       0       0       6      12                BRANCHES       0D0000154
     106     413       0       1       0       0       0       000000000D0000155
     106       0       0       7      12                BRANCHES       0D0000156
     106     420       0       1       0       0       0       000000000D0000157
     106       0       0       4      12                BRANCHES       0D0000158
     106     424       0       1       0       0       0       000000000D0000159
     106       0       0       5      12                BRANCHES       0D0000160
     106     429       0       1       0       0       0       000000000D0000161
     106       0       0       6      12                BRANCHES       0D0000162
     106     435       0       1       0       0       0       000000000D0000163
     106       0       0       8      12                BRANCHES       0D0000164
     106     443       0       1       0       0       0       000000000D0000165
     106       0       0       7      12                BRANCHES       0D0000166
     106     450       0       1       0       0       0       000000000D0000167
     106       0       0       5      12                BRANCHES       0D0000168
     106     455       0       1       0       0       0       000000000D0000169
     106       0       0       7      12                BRANCHES       0D0000170
     106     462       0       1       0       0       0       000000000D0000171
     106       0       0       7      12                BRANCHES       0D0000172
     106     469       0       1       0       0       0       000000000D0000173
     106       0       0       8      12                BRANCHES       0D0000174
     106     477       0       1       0       0       0       000000000D0000175
     106       0       0       8      12                BRANCHES       0D0000176
     106     485       0       1       0       0       0       000000000D0000177
     106       0       0       6      12                BRANCHES       0D0000178
     106     491       0       1       0       0       0       000000000D0000179
     106       0       0       8      12                BRANCHES       0D0000180
     106     499       0       1       0       0       0       000000000D0000181
     106       0       0       3      12                BRANCHES       0D0000182
     106     502       0       1       0       0       0       000000000D0000183
     106       0       0       4      12                BRANCHES       0D0000184
     106     506       0       1       0       0       0       000000000D0000185
     106       0       0       6      12                BRANCHES       0D0000186
     106     512       0       1       0       0       0       000000000D0000187
     106       0       0       7      12                BRANCHES       0D0000188
     106     519       0       1       0       0       0       000000000D0000189
     106       0       0       8      12                BRANCHES       0D0000190
     106     527       0       1       0       0       0       000000000D0000191
     106       0       0       6      12                BRANCHES       0D0000192
     106     533       0       1       0       0       0       000000000D0000193
     106       0       0       4      12                BRANCHES       0D0000194
     106     537       0       1       0       0       0       000000000D0000195
     106       0       0       2      12                BRANCHES       0D0000196
     106     539       0       1       0       0       0       000000000D0000197
     106       0       0       8      12                BRANCHES       0D0000198
     106     547       0       1       0       0       0       000000000D0000199
     106       0       0       8      12                BRANCHES       0D0000200
     106     555       0       1       0       0       0       000000000D0000201
     106       0       0       7      12                BRANCHES       0D0000202
     106     562       0       1       0       0       0       000000000D0000203
     106       0       0       6      12                BRANCHES       0D0000204
     106     568       0       1       0       0       0       000000000D0000205
     106       0       0       7      12                BRANCHES       0D0000206
     106     575       0       1       0       0       0       000000000D0000207
     106       0       0       8      12                BRANCHES       0D0000208
     106     583       0       1       0       0       0       000000000D0000209
     106       0       0       6      12                BRANCHES       0D0000210
     106     589       0       1       0       0       0       000000000D0000211
     106       0       0       8      12                BRANCHES       0D0000212
     106     597       0       1       0       0       0       000000000D0000213
     106       0       0       5      12                BRANCHES       0D0000214
     106     602       0       1       0       0       0       000000000D0000215
     106       0       0       7      12                BRANCHES       0D0000216
     106     609       0       1       0       0       0       000000000D0000217
     106       0       0       6      12                BRANCHES       0D0000218
     106     615       0       1       0       0       0       000000000D0000219
     106       0       0       7      12                BRANCHES       0D0000220
     106     622       0       1       0       0       0       000000000D0000221
     106       0       0       7      12                BRANCHES       0D0000222
     106     629       0       1       0       0       0       000000000D0000223
     106       0       0       6      12                BRANCHES       0D0000224
     106     635       0       1       0       0       0       000000000D0000225
     106       0       0       6      12                BRANCHES       0D0000226
     106     641       0       1       0       0       0       000000000D0000227
     106       0       0       6      12                BRANCHES       0D0000228
     106     647       0       1       0       0       0       000000000D0000229
     106       0       0       6      12                BRANCHES       0D0000230
106,2,8,50.776901,144.23911,39.526905,49.853333,140.44209,             1P0000001
40.813053,49.036747,136.42432,42.057686,48.374912,131.82492,           1P0000002
43.315254,48.125107,127.05582,44.401413,48.494026,122.41727,           1P0000003
45.225018,49.591133,118.05372,45.808548,51.937443,113.05643,           1P0000004
46.390411;                                                             1P0000005
106,2,2,51.937443,113.05643,46.390411,53.888828,109.82159,             3P0000006
46.824791;                                                             3P0000007
106,2,6,53.888828,109.82159,46.824791,56.398815,106.08085,             5P0000008
47.520206,58.968452,102.03836,48.564579,61.098911,97.857376,           5P0000009
49.920139,62.470024,93.598572,51.485519,62.844906,89.630898,           5P0000010
52.998016;                                                             5P0000011
106,2,5,62.844906,89.630898,52.998016,62.223511,85.360001,             7P0000012
54.550529,60.622337,81.607315,55.718319,58.283745,78.13105,            7P0000013
56.528973,55.407112,74.712769,57.02029;                                7P0000014
106,2,2,55.407112,74.712769,57.02029,51.342567,69.87146,               9P0000015
57.347439;                                                             9P0000016
106,2,6,51.342567,69.87146,57.347439,47.64563,64.272171,              11P0000017
57.623878,45.795403,60.070236,57.887691,44.359421,55.519661,          11P0000018
58.187195,43.203922,50.765629,58.406876,42.188423,46.187943,          11P0000019
58.389992;                                                            11P0000020
106,2,2,42.188423,46.187943,58.389992,40.95623,41.252876,             13P0000021
57.950741;                                                            13P0000022
106,2,9,40.95623,41.252876,57.950741,39.655231,37.152805,             15P0000023
57.108654,38.004852,33.210518,55.757656,36.05143,29.527443,           15P0000024
54.029991,33.83754,25.965391,52.093472,31.432501,22.371405,           15P0000025
50.143032,28.908293,18.630505,48.351257,26.324202,14.701306,          15P0000026
46.829159,24.223534,11.405412,45.843182;                              15P0000027
106,2,5,24.223534,11.405412,45.843182,21.147991,6.4884324,            17P0000028
44.652599,18.643381,2.4043934,43.881081,16.282339,-1.5629269,         17P0000029
43.21262,13.428562,-7.0104389,42.358051;                              17P0000030
106,2,20,13.428562,-7.0104389,42.358051,12.395549,-9.2501173,         19P0000031
42.023792,11.084682,-13.193231,41.531292,10.293105,-17.392542,        19P0000032
41.16674,10.018347,-21.94272,40.96133,10.179241,-26.849152,           19P0000033
40.901917,10.623031,-32.017574,40.921852,11.15295,-37.279388,         19P0000034
40.91494,11.570354,-42.445747,40.769272,11.720328,-47.372635,         19P0000035
40.409962,11.527933,-52.014019,39.835442,11.01426,-56.442604,         19P0000036
39.132923,10.287036,-60.82748,38.464947,9.5078983,-65.372032,         19P0000037
38.028183,8.8454351,-70.229225,37.995411,8.4274635,-75.420364,        19P0000038
38.457928,8.3064251,-80.784424,39.387024,8.4479494,-85.977066,        19P0000039
40.628029,8.7456913,-90.524384,41.931053,9.1551647,-94.828995,        19P0000040
43.316994;                                                            19P0000041
106,2,15,13.428562,-7.0104389,42.358051,8.5136108,-3.8808088,         21P0000042
41.469315,5.7003298,-1.4971111,40.852108,3.2288616,1.2589577,         21P0000043
40.246117,0.22404477,4.4990234,39.624977,-3.1242969,7.9485736,        21P0000044
39.092415,-6.6377063,11.36447,38.724075,-10.168994,14.571689,         21P0000045
38.552483,-13.613175,17.485661,38.562916,-16.908464,20.116638,        21P0000046
38.700928,-20.028803,22.556101,38.889393,-22.971312,24.948771,        21P0000047
39.050686,-25.743008,27.456394,39.128395,-28.350756,30.220842,        21P0000048
39.10321,-31.678991,34.678879,38.953018;                              21P0000049
106,2,3,-31.678991,34.678879,38.953018,-33.081928,36.818501,          23P0000050
38.87949,-34.981613,40.218311,38.837078;                              23P0000051
106,2,8,-34.981613,40.218311,38.837078,-37.197227,44.650524,          25P0000052
38.950371,-39.077698,48.744965,39.314186,-40.901249,52.758144,        25P0000053
39.973698,-42.725853,56.560471,40.943188,-44.602505,60.068466,        25P0000054
42.203861,-46.55682,63.258331,43.715164,-48.668339,66.297379,         25P0000055
45.52113;                                                             25P0000056
106,2,2,-48.668339,66.297379,45.52113,-50.579292,68.882439,           27P0000057
47.314671;                                                            27P0000058
106,2,4,-50.579292,68.882439,47.314671,-52.457863,71.521378,          29P0000059
49.351467,-54.050007,74.20594,51.548962,-55.129581,76.894508,         29P0000060
53.810669;                                                            29P0000061
106,2,4,-55.129581,76.894508,53.810669,-55.721176,80.070518,          31P0000062
56.517704,-55.564167,83.306961,59.313175,-54.214123,87.843506,        31P0000063
63.320751;                                                            31P0000064
106,2,6,-54.214123,87.843506,63.320751,-53.257683,90.07666,           33P0000065
65.325134,-51.393818,93.324196,68.309914,-49.382771,96.236526,        33P0000066
71.049629,-47.521366,98.624237,73.342232,-45.704964,100.76111,        33P0000067
75.430984;                                                            33P0000068
106,2,4,70.201263,-13.558737,83.102394,69.814026,-12.924428,          35P0000069
80.195862,69.271095,-12.258317,77.063965,68.356697,-11.435657,        35P0000070
73.069717;                                                            35P0000071
106,2,4,68.356697,-11.435657,73.069717,67.338921,-10.727242,          37P0000072
69.531403,65.948616,-9.9762526,65.706612,63.963196,-9.1029301,        37P0000073
61.391586;                                                            37P0000074
106,2,3,63.963196,-9.1029301,61.391586,62.618176,-8.5509901,          39P0000075
58.847027,61.685532,-8.1510277,57.298828;                             39P0000076
106,2,5,61.685532,-8.1510277,57.298828,59.110535,-6.9229202,          41P0000077
53.305656,57.378574,-5.8707042,50.964619,55.58622,-4.5960875,         41P0000078
48.883541,53.190578,-2.7849939,46.827793;                             41P0000079
106,2,10,53.190578,-2.7849939,46.827793,51.288979,-1.3844609,         43P0000080
45.637222,48.516773,0.45783347,44.605518,45.247955,2.3465919,         43P0000081
44.046879,41.557293,4.18081,43.965683,37.648449,5.861568,             43P0000082
44.297165,33.836395,7.3026381,44.907448,30.500639,8.4365635,          43P0000083
45.6143,27.690271,9.5685616,45.976391,24.223534,11.405412,            43P0000084
45.843182;                                                            43P0000085
106,2,8,-31.678991,34.678879,38.953018,-33.540119,32.82814,           45P0000086
39.465443,-34.860867,31.102398,40.012878,-36.322609,28.840321,        45P0000087
40.706116,-38.073528,26.20915,41.376247,-39.973618,23.443958,         45P0000088
41.86969,-41.880322,20.744228,42.058407,-43.663528,18.242468,         45P0000089
41.861221;                                                            45P0000090
106,2,5,-43.663528,18.242468,41.861221,-45.218269,15.988478,          47P0000091
41.254684,-46.473606,13.951802,40.271839,-47.396786,12.040812,        47P0000092
38.990082,-47.936047,10.27566,37.621986;                              47P0000093
106,2,6,-47.936047,10.27566,37.621986,-48.29763,8.1104279,            49P0000094
35.941898,-48.372631,5.8878551,34.370441,-48.290897,3.4340892,        49P0000095
32.859783,-48.127777,0.77539688,31.443312,-47.984459,-1.4833093,      49P0000096
30.382214;                                                            49P0000097
106,2,7,-47.984459,-1.4833093,30.382214,-47.811871,-4.8381782,        51P0000098
28.93059,-47.743603,-7.598588,27.848036,-47.75774,-10.22784,          51P0000099
26.915194,-47.847652,-12.702284,26.187532,-47.992935,-15.046505,      51P0000100
25.741287,-48.159924,-17.250248,25.662239;                            51P0000101
106,2,9,-48.159924,-17.250248,25.662239,-48.335632,-19.609449,        53P0000102
26.012108,-48.478394,-21.971951,26.832041,-48.577038,-24.436657,      53P0000103
28.09766,-48.625435,-26.971521,29.722042,-48.627926,-29.480543,       53P0000104
31.555441,-48.597221,-31.813509,33.400806,-48.550926,-33.789478,      53P0000105
35.040436,-48.494358,-35.608982,36.598019;                            53P0000106
106,2,10,-50.579292,68.882439,47.314671,-48.690441,72.230789,         55P0000107
44.909473,-47.93021,73.844986,44.02417,-47.045216,76.029518,          55P0000108
42.88203,-46.254795,78.566696,41.654549,-45.734581,81.25489,          55P0000109
40.501083,-45.563881,83.948097,39.536957,-45.701767,86.574341,        55P0000110
38.817318,-45.998642,89.12925,38.340176,-46.19178,91.343819,          55P0000111
38.109314;                                                            55P0000112
106,2,6,-46.19178,91.343819,38.109314,-46.205544,94.176872,           57P0000113
37.944023,-45.736401,96.728386,37.940884,-44.774288,99.281036,        57P0000114
38.052784,-43.378967,101.77939,38.305992,-41.637257,104.25163,        57P0000115
38.770802;                                                            57P0000116
106,2,12,-41.637257,104.25163,38.770802,-39.983761,106.3902,          59P0000117
39.386528,-38.417393,108.486,40.238586,-37.17865,110.53152,           59P0000118
41.243935,-36.352837,112.65807,42.303986,-35.935566,115.00574,        59P0000119
43.293724,-35.849823,117.67104,44.092266,-35.979088,120.6578,         59P0000120
44.615349,-36.204327,123.84786,44.839195,-36.43293,127.00365,         59P0000121
44.80751,-36.612103,129.80519,44.618668,-36.75172,132.4814,           59P0000122
44.324299;                                                            59P0000123
106,2,10,40.95623,41.252876,57.950741,43.295071,40.246666,            61P0000124
60.737228,44.702137,39.873608,62.46809,45.984074,39.836739,           61P0000125
64.156197,47.473175,39.863491,66.208878,49.024231,39.993126,          61P0000126
68.493973,50.501301,40.248829,70.885628,51.79612,40.628902,           61P0000127
73.280006,52.84116,41.102505,75.606209,53.80225,41.776031,            61P0000128
78.586617;                                                            61P0000129
106,2,7,53.80225,41.776031,78.586617,54.141121,42.075058,             63P0000130
79.956009,54.475849,42.406338,82.01062,54.695782,42.522011,           63P0000131
84.038651,54.879318,42.359379,86.085213,55.090481,41.888096,          63P0000132
88.184288,55.250336,41.441544,89.439613;                              63P0000133
106,2,3,55.250336,41.441544,89.439613,55.710163,40.098606,            65P0000134
92.574272,56.079823,38.955936,94.754387;                              65P0000135
106,2,18,56.079823,38.955936,94.754387,56.45665,37.685123,            67P0000136
97.069839,56.7332,36.522202,99.257706,56.852631,35.541744,            67P0000137
101.35954,56.760937,34.833855,103.36385,56.43092,34.453793,           67P0000138
105.28522,55.868538,34.415722,107.16412,55.112957,34.692966,          67P0000139
109.06034,54.230438,35.224476,111.04124,53.303318,35.926201,          67P0000140
113.16656,52.416279,36.705185,115.47252,51.642559,37.473862,          67P0000141
117.95862,51.032745,38.162048,120.57945,50.608189,38.72467,           67P0000142
123.24371,50.360188,39.144146,125.82101,50.254974,39.427402,          67P0000143
128.15587,50.243298,39.598446,130.08682,50.286102,39.706833,          67P0000144
131.82788;                                                            67P0000145
106,2,9,78.34198,77.648438,24.616385,76.733856,75.961685,             69P0000146
25.338276,75.017639,74.191505,26.030218,73.045639,72.187035,          69P0000147
26.741194,71.017181,70.139481,27.414381,69.107231,68.186264,          69P0000148
28.072788,67.437912,66.391479,28.813335,66.060516,64.749352,          69P0000149
29.768972,65.340614,63.74836,30.601805;                               69P0000150
106,2,13,65.340614,63.74836,30.601805,64.022057,61.698193,            71P0000151
32.700764,63.142319,60.173599,34.648663,62.1703,58.621544,            71P0000152
36.73341,60.984318,57.069817,38.742283,59.509247,55.572083,           71P0000153
40.481743,57.732147,54.184872,41.846561,55.704136,52.944916,          71P0000154
42.863056,53.52861,51.855755,43.688499,51.339153,50.888668,           71P0000155
44.563374,49.272709,49.9972,45.729561,47.444607,49.139492,            71P0000156
47.340294,46.239586,48.470669,48.974102;                              71P0000157
106,2,5,46.239586,48.470669,48.974102,44.764256,47.499069,            73P0000158
51.703186,43.93615,46.79512,53.947746,43.238983,46.377754,            73P0000159
55.953835,42.188423,46.187943,58.389992;                              73P0000160
106,2,11,-61.759926,140.77849,39.388924,-62.158398,139.49855,         75P0000161
39.825069,-62.570633,138.0369,40.252792,-63.022713,136.20471,         75P0000162
40.684219,-63.453072,134.08862,41.037086,-63.807072,131.78157,        75P0000163
41.245712,-64.044952,129.37491,41.274014,-64.146309,126.95072,        75P0000164
41.122616,-64.110344,124.57533,40.828518,-63.951958,122.29466,        75P0000165
40.457462,-63.573112,119.38428,39.986916;                             75P0000166
106,2,17,-63.573112,119.38428,39.986916,-63.362152,118.08732,         77P0000167
39.807243,-62.969746,116.14195,39.669743,-62.518993,114.26188,        77P0000168
39.709263,-61.995457,112.4055,39.919651,-61.371193,110.53132,         77P0000169
40.25798,-60.611355,108.60583,40.652744,-59.683769,106.6105,          77P0000170
41.01786,-58.569599,104.54695,41.269867,-57.2729,102.43972,           77P0000171
41.34481,-55.82695,100.33607,41.211567,-54.295784,98.302872,          77P0000172
40.87886,-52.770187,96.420929,40.394535,-51.358532,94.777214,         77P0000173
39.837189,-50.173653,93.456032,39.301716,-48.750332,92.465057,        77P0000174
38.793526,-46.19178,91.343819,38.109314;                              77P0000175
106,2,13,-43.663528,18.242468,41.861221,-45.442932,19.623219,         79P0000176
42.861023,-46.60104,20.78495,43.693714,-48.218472,22.345884,          79P0000177
44.859756,-50.173981,24.120699,46.268578,-52.338848,25.91069,         79P0000178
47.813343,-54.597103,27.534302,49.380829,-56.862572,28.853876,        79P0000179
50.861519,-59.089535,29.794203,52.158855,-61.275166,30.349878,        79P0000180
53.196796,-63.453144,30.580515,53.924995,-65.679779,30.594982,        79P0000181
54.321274,-68.930161,30.521904,54.308716;                             79P0000182
106,2,9,-68.930161,30.521904,54.308716,-70.502762,30.511845,          81P0000183
54.166576,-73.151886,30.65316,53.698692,-75.925476,31.011032,         81P0000184
53.054729,-78.736649,31.588161,52.310268,-81.45443,32.331669,         81P0000185
51.543083,-83.918053,33.144783,50.827255,-85.957649,33.906708,        81P0000186
50.228073,-87.798805,34.657761,49.68576;                              81P0000187
106,2,8,-47.936047,10.27566,37.621986,-48.948158,9.4854851,           83P0000188
39.79987,-50.21693,8.775816,41.742508,-51.905312,7.8099685,           83P0000189
44.098011,-53.539581,6.5799665,46.639164,-54.843132,5.1133709,        83P0000190
49.059185,-55.677292,3.4309115,51.160011,-56.060349,1.440241,         83P0000191
52.966614;                                                            83P0000192
106,2,12,-56.060349,1.440241,52.966614,-56.113037,-0.49692228,        85P0000193
54.329151,-56.012672,-2.6659334,55.662079,-55.881481,-4.8790636,      85P0000194
57.096054,-55.747593,-7.0340595,58.802773,-55.535892,-9.0157795,      85P0000195
60.867344,-55.111263,-10.717372,63.267185,-54.352772,-12.063556,      85P0000196
65.880417,-53.227913,-13.028216,68.516335,-51.835735,-13.63976,       85P0000197
70.95575,-50.399529,-13.971245,72.989067,-48.871502,-14.141013,       85P0000198
74.822952;                                                            85P0000199
106,2,7,53.190578,-2.7849939,46.827793,53.525616,-4.09448,            87P0000200
43.873051,53.407143,-5.1048436,42.25779,53.225269,-6.5841041,         87P0000201
40.215679,52.991764,-8.4773865,38.102013,52.742374,-10.699895,        87P0000202
36.249531,52.541138,-13.138442,34.896049;                             87P0000203
106,2,6,52.541138,-13.138442,34.896049,52.475361,-15.662065,          89P0000204
34.138508,52.640877,-18.140959,33.923367,53.120621,-20.469654,        89P0000205
34.073341,53.962257,-22.587952,34.341145,54.975361,-24.197189,        89P0000206
34.453842;                                                            89P0000207
106,2,10,54.975361,-24.197189,34.453842,56.656212,-26.235954,         91P0000208
34.275524,58.335026,-27.90687,33.639656,60.057095,-29.602997,         91P0000209
32.56834,61.679893,-31.395882,31.15501,63.086586,-33.301659,          91P0000210
29.552986,64.205925,-35.264854,27.936649,65.019356,-37.160965,        91P0000211
26.467379,65.553673,-38.818222,25.271969,65.930542,-40.384277,        91P0000212
24.221535;                                                            91P0000213
106,2,17,55.407112,74.712769,57.02029,56.602974,74.981224,            93P0000214
58.792492,57.923401,75.306297,60.244251,59.860531,75.912285,          93P0000215
61.624493,61.937817,76.701103,63.321873,63.901939,77.652855,          93P0000216
65.217926,65.596672,78.741425,67.178352,66.992027,79.936951,          93P0000217
69.070564,68.174423,81.209892,70.785965,69.302444,82.535805,          93P0000218
72.262024,70.543228,83.899063,73.497963,72.009842,85.294182,          93P0000219
74.558098,73.719345,86.723663,75.559494,75.583969,88.192337,          93P0000220
76.644478,77.437103,89.699379,77.94326,79.084801,91.23008,            93P0000221
79.535133,79.715172,91.978127,80.462166;                              93P0000222
106,2,6,79.715172,91.978127,80.462166,80.365341,92.749664,            95P0000223
81.418312,81.197418,94.201508,83.497231,81.601395,95.510818,          95P0000224
85.592026,81.687202,96.59362,87.469528,81.572052,97.572105,           95P0000225
89.272026;                                                            95P0000226
106,2,8,61.685532,-8.1510277,57.298828,61.562588,-10.440657,          97P0000227
57.101917,61.705193,-12.008467,57.041222,62.052563,-13.689122,        97P0000228
57.018829,62.408543,-15.7097,56.935108,62.710716,-17.924007,          97P0000229
56.760418,62.910072,-20.193783,56.473991,62.969597,-22.779001,        97P0000230
55.977077;                                                            97P0000231
106,2,19,62.969597,-22.779001,55.977077,62.921055,-24.487837,         99P0000232
55.55505,62.756893,-26.407059,54.956093,62.528202,-28.174778,         99P0000233
54.306564,62.280102,-29.83407,53.644184,62.049545,-31.44693,          99P0000234
53.002441,61.854393,-33.078827,52.403934,61.686981,-34.784195,        99P0000235
51.85611,61.513912,-36.595387,51.350449,61.282364,-38.516647,         99P0000236
50.865299,60.931873,-40.523663,50.371868,60.40918,-42.568127,         99P0000237
49.842144,59.683075,-44.585823,49.257019,58.755936,-46.506248,        99P0000238
48.612949,57.669346,-48.261707,47.925545,56.502148,-49.794296,        99P0000239
47.229309,55.361015,-51.059677,46.573357,54.364952,-52.027687,        99P0000240
46.013908,53.429951,-52.844383,45.496872;                             99P0000241
106,2,5,52.541138,-13.138442,34.896049,53.475639,-13.223398,         101P0000242
32.866135,54.435627,-13.725657,31.302498,55.798412,-14.679162,       101P0000243
29.594069,57.746922,-15.957281,27.48984;                             101P0000244
106,2,13,57.746922,-15.957281,27.48984,59.278332,-16.912325,         103P0000245
26.054388,61.170521,-18.038092,24.597538,63.027649,-19.13195,        103P0000246
23.422186,64.771187,-20.218191,22.435863,66.347046,-21.348726,       103P0000247
21.463781,67.725113,-22.579714,20.307877,68.895386,-23.94561,        103P0000248
18.813808,69.862175,-25.437893,16.927557,70.637856,-26.994686,       103P0000249
14.725804,71.237457,-28.504625,12.411281,71.674843,-29.824648,       103P0000250
10.273449,72.031357,-31.070269,8.1747475;                            103P0000251
106,2,17,51.342567,69.87146,57.347439,48.204361,71.892258,           105P0000252
60.114304,47.126484,72.459724,61.574486,45.811993,73.202248,         105P0000253
63.557632,44.543945,74.028915,65.860992,43.588242,74.871468,         105P0000254
68.278809,43.135033,75.707886,70.637283,43.26017,76.572006,          105P0000255
72.819153,43.915409,77.545364,74.772675,44.948586,78.732315,         105P0000256
76.504387,46.147266,80.224403,78.058525,47.293732,82.063416,         105P0000257
79.489784,48.21656,84.213295,80.836983,48.825626,86.549461,          105P0000258
82.104805,49.122345,88.869743,83.258179,49.183891,90.925728,         105P0000259
84.230042,49.096233,92.88176,85.127472;                              105P0000260
106,2,14,51.937443,113.05643,46.390411,55.863464,115.20273,          107P0000261
45.362541,57.870754,116.29295,45.164314,60.362251,117.72662,         107P0000262
44.752213,62.898422,119.34894,44.060509,65.129128,121.05991,         107P0000263
43.088581,66.882469,122.84412,41.923435,68.18515,124.76107,          107P0000264
40.728172,69.211304,126.89854,39.698353,70.182884,129.30617,         107P0000265
39.000923,71.261765,131.93567,38.718121,72.47522,134.61281,          107P0000266
38.817791,73.701805,137.05519,39.162476,75.011513,139.44568,         107P0000267
39.682365;                                                           107P0000268
106,2,8,-55.129581,76.894508,53.810669,-57.495739,77.351532,         109P0000269
53.044418,-59.177181,78.113068,52.573238,-60.982471,79.364807,       109P0000270
52.140808,-63.053463,80.839287,51.653137,-65.185493,82.42218,        109P0000271
51.166866,-67.206017,84.022018,50.732822,-69.043777,85.626915,       109P0000272
50.38232;                                                            109P0000273
106,2,12,-69.043777,85.626915,50.38232,-70.537239,87.107025,         111P0000274
50.154034,-71.843758,88.617569,50.030022,-73.010201,90.176239,       111P0000275
50.001022,-74.149612,91.845497,50.040165,-75.366386,93.668289,       111P0000276
50.115921,-76.725525,95.647949,50.198845,-78.231766,97.736282,       111P0000277
50.26693,-79.823051,99.832809,50.308628,-81.379761,101.79578,        111P0000278
50.32309,-82.747574,103.46306,50.317795,-84.042053,104.99954,        111P0000279
50.299454;                                                           111P0000280
106,2,17,51.342567,69.87146,57.347439,47.837482,72.005386,           113P0000281
59.610035,46.37252,72.5401,60.552574,44.409485,73.271866,            113P0000282
61.756916,42.178349,74.144928,63.027042,39.912994,75.122681,         113P0000283
64.178673,37.811085,76.203194,65.079201,36.005035,77.423523,         113P0000284
65.673172,34.549713,78.850204,65.987343,33.428261,80.557068,         113P0000285
66.114815,32.572979,82.595665,66.183044,31.894648,84.966042,         113P0000286
66.314781,31.312105,87.595985,66.592552,30.774509,90.335701,         113P0000287
67.036003,30.271135,92.970718,67.597954,29.827467,95.25193,          113P0000288
68.179535,29.398561,97.384499,68.795631;                             113P0000289
106,2,12,53.190578,-2.7849939,46.827793,55.760658,-1.7889613,        115P0000290
44.960678,56.94656,-1.1762902,44.243145,58.590473,-0.43537506,       115P0000291
43.390305,60.546688,0.28202581,42.573643,62.648026,0.85352504,       115P0000292
41.900856,64.727837,1.2170705,41.37619,66.643921,1.3794742,          115P0000293
40.900852,68.30011,1.4012569,40.313305,69.660759,1.365191,           115P0000294
39.453892,70.75396,1.341516,38.228981,71.890648,1.3790759,           115P0000295
36.152412;                                                           115P0000296
106,2,13,71.890648,1.3790759,36.152412,72.498138,1.4208921,          117P0000297
34.832226,73.380981,1.4760563,32.954235,74.402458,1.4891592,         117P0000298
31.193289,75.607689,1.4466164,29.66227,76.98555,1.3765373,           117P0000299
28.372541,78.47419,1.3449366,27.237608,79.978752,1.4329507,          117P0000300
26.11659,81.395638,1.7033901,24.881056,82.635635,2.1697288,          117P0000301
23.479424,83.639389,2.7803295,21.973646,84.381447,3.4253752,         117P0000302
20.533056,84.980583,4.119596,19.067266;                              117P0000303
106,2,9,53.80225,41.776031,78.586617,55.764053,41.372856,            119P0000304
77.941414,57.241482,41.244682,77.272644,58.950939,41.234322,         119P0000305
76.382309,60.989071,41.182468,75.408333,63.200649,41.07061,          119P0000306
74.474922,65.444389,40.889477,73.67865,67.612556,40.643299,          119P0000307
73.068535,69.889145,40.311478,72.594261;                             119P0000308
106,2,12,69.889145,40.311478,72.594261,71.522552,40.046463,          121P0000309
72.317085,73.278183,39.769939,72.006508,74.963631,39.564877,         121P0000310
71.581108,76.638702,39.467991,70.927895,78.349045,39.502201,         121P0000311
69.971306,80.109428,39.671257,68.693939,81.894104,39.957569,         121P0000312
67.146515,83.636124,40.323845,65.444786,85.235931,40.718319,         121P0000313
63.753597,86.577248,41.082821,62.26088,87.80201,41.437954,           121P0000314
60.848392;                                                           121P0000315
106,2,10,-34.981613,40.218311,38.837078,-35.475735,40.534775,        123P0000316
36.845673,-36.055759,41.018837,35.3461,-36.795139,41.766941,         123P0000317
33.615776,-37.459053,42.598156,31.567286,-37.852947,43.421696,       123P0000318
29.379478,-37.815964,44.174286,27.230293,-37.250183,44.834927,       123P0000319
25.277079,-36.137295,45.429554,23.641102,-35.050892,45.834045,       123P0000320
22.795732;                                                           123P0000321
106,2,10,-35.050892,45.834045,22.795732,-32.587734,46.7085,          125P0000322
21.575596,-30.45252,47.57098,21.156492,-28.31666,48.674862,          125P0000323
21.087656,-26.342876,50.036427,21.291428,-24.65069,51.613007,        125P0000324
21.677929,-23.304199,53.30294,22.1563,-22.312904,54.958145,          125P0000325
22.643499,-21.644285,56.407177,23.070158,-21.152262,57.771553,       125P0000326
23.466335;                                                           125P0000327
106,2,9,51.342567,69.87146,57.347439,49.590546,71.640656,            127P0000328
55.933273,48.27882,73.045837,54.159683,47.148109,74.357506,          127P0000329
51.998871,46.191601,75.748932,49.463795,45.533073,77.14875,          127P0000330
47.047455,45.30257,78.518913,44.934124,45.520279,79.906494,          127P0000331
43.164494,45.910557,80.916512,42.153812;                             127P0000332
106,2,7,45.910557,80.916512,42.153812,46.899525,83.151329,           129P0000333
40.25584,47.738186,85.165825,38.827118,48.476597,87.407501,          129P0000334
37.30526,49.032116,89.710152,35.738369,49.388844,91.816925,          129P0000335
34.278423,49.619377,93.878754,32.81868;                              129P0000336
106,2,16,-95.587273,94.103325,64.086723,-94.311096,92.973038,        131P0000337
63.188797,-92.943581,91.721619,62.307045,-91.345993,90.220688,       131P0000338
61.394577,-89.632378,88.59845,60.571278,-87.875618,86.994286,        131P0000339
59.894329,-86.096733,85.54406,59.34412,-84.272583,84.363815,         131P0000340
58.834839,-82.359627,83.53418,58.246861,-80.32634,83.088432,         131P0000341
57.471188,-78.183922,83.00695,56.452457,-76.005501,83.219955,        131P0000342
55.217216,-73.926712,83.618973,53.878288,-72.126602,84.0756,         131P0000343
52.613148,-70.689117,84.657875,51.55983,-69.043777,85.626915,        131P0000344
50.38232;                                                            131P0000345
106,2,6,-47.984459,-1.4833093,30.382214,-48.072002,-1.1101613,       133P0000346
28.405504,-48.27755,-1.0506978,26.642183,-48.523506,-1.267764,       133P0000347
24.50741,-48.629337,-1.6510385,22.201273,-48.56575,-1.950182,        133P0000348
21.028889;                                                           133P0000349
106,2,15,-48.56575,-1.950182,21.028889,-48.509098,-2.2166836,        135P0000350
19.984432,-48.140465,-2.9401336,18.010424,-47.570042,-3.7642338,     135P0000351
16.303843,-46.894741,-4.6235304,14.781844,-46.226955,-5.475071,      135P0000352
13.308133,-45.656647,-6.3224034,11.758134,-45.224369,-7.2211046,     135P0000353
10.071733,-44.914478,-8.260747,8.2761803,-44.670013,-9.5273876,      135P0000354
6.473927,-44.422409,-11.058913,4.8034668,-44.123863,-12.809712,      135P0000355
3.3906848,-43.769512,-14.639208,2.3104086,-43.401005,-16.331354,     135P0000356
1.5723003,-43.001343,-17.999878,1.0354973;                           135P0000357
106,2,16,-41.637257,104.25163,38.770802,-42.969097,105.40752,        137P0000358
37.094948,-44.150753,106.54179,35.992756,-45.534267,108.08403,       137P0000359
34.996574,-46.94297,109.91216,34.015015,-48.150158,111.90121,        137P0000360
33.205944,-49.006767,113.95816,32.644058,-49.470432,116.0336,        137P0000361
32.301357,-49.603924,118.11805,32.059872,-49.544899,120.22449,       137P0000362
31.752947,-49.457027,122.36291,31.222763,-49.477558,124.51532,       137P0000363
30.376673,-49.677048,126.61945,29.22506,-50.04253,128.5667,          137P0000364
27.88888,-50.48819,130.21602,26.573896,-51.007133,131.73839,         137P0000365
25.224682;                                                           137P0000366
106,2,14,80.785851,114.3276,59.569523,79.786514,111.93023,           139P0000367
59.011368,78.744438,109.59344,58.454777,77.558357,107.18136,         139P0000368
57.858238,76.309998,104.98154,57.277977,75.030823,103.10232,         139P0000369
56.731106,73.704681,101.46599,56.196312,72.292747,99.874985,         139P0000370
55.630878,70.771011,98.123909,54.997387,69.165276,96.112892,         139P0000371
54.289501,67.568794,93.917641,53.546406,66.098953,92.031105,         139P0000372
53.022987,64.558502,90.630379,52.846218,62.844906,89.630898,         139P0000373
52.998016;                                                           139P0000374
106,2,7,46.239586,48.470669,48.974102,44.573921,47.144516,           141P0000375
46.410255,43.769394,46.585018,44.452709,42.999134,45.710186,         141P0000376
42.037487,42.572033,44.558502,39.57325,42.656128,43.260002,          141P0000377
37.344994,43.155056,42.19701,35.710194;                              141P0000378
106,2,10,43.155056,42.19701,35.710194,44.163609,41.080135,           143P0000379
33.784504,45.263508,40.597881,32.190018,46.440392,40.620052,         143P0000380
30.503668,47.720299,41.045712,28.670429,49.20821,41.671604,          143P0000381
26.759001,50.984146,42.274574,24.923185,52.996895,42.696754,         143P0000382
23.33164,55.017815,42.894119,22.106001,57.162338,42.9161,            143P0000383
21.098541;                                                           143P0000384
106,2,6,-77.389778,74.7099,31.581997,-75.311455,73.761864,           145P0000385
31.479198,-73.202271,72.731255,31.445808,-70.919014,71.520294,       145P0000386
31.531998,-68.725342,70.240883,31.815372,-66.989059,69.135254,       145P0000387
32.300076;                                                           145P0000388
106,2,11,-66.989059,69.135254,32.300076,-65.113319,67.901962,        147P0000389
33.193909,-63.624352,67.007668,34.320946,-62.144711,66.358795,       147P0000390
35.699265,-60.503323,65.960808,37.255043,-58.599934,65.788803,       147P0000391
38.889011,-56.455101,65.793999,40.487701,-54.222397,65.912941,       147P0000392
41.935577,-52.158661,66.077911,43.126339,-50.560658,66.227295,       147P0000393
43.972309,-48.668339,66.297379,45.52113;                             147P0000394
106,2,15,55.250336,41.441544,89.439613,55.740746,42.972073,          149P0000395
90.190613,56.502445,44.387577,90.995796,57.404568,45.946949,         149P0000396
92.214859,58.062965,47.388294,93.727013,58.441536,48.560642,         149P0000397
95.369606,58.722515,49.509243,96.953514,59.185112,50.395939,         149P0000398
98.338676,60.028522,51.365196,99.502174,61.242607,52.436478,         149P0000399
100.55428,62.600769,53.484394,101.68189,63.777855,54.313782,         149P0000400
103.03948,64.523148,54.780342,104.64044,64.787323,54.881512,         149P0000401
106.30861,64.669395,54.694798,108.13129;                             149P0000402
106,2,7,-35.050892,45.834045,22.795732,-35.086208,44.739735,         151P0000403
21.574865,-34.956467,43.796158,20.500103,-34.772991,42.516094,       151P0000404
19.111383,-34.543602,41.025787,17.619642,-34.271591,39.443798,       151P0000405
16.226276,-33.844471,37.40733,14.842885;                             151P0000406
106,2,11,-33.844471,37.40733,14.842885,-33.577152,36.302799,         153P0000407
14.256261,-33.128185,34.77599,13.737267,-32.591766,33.235611,        153P0000408
13.440198,-31.961199,31.632395,13.241985,-31.243927,29.935305,       153P0000409
13.019781,-30.465647,28.154346,12.68709,-29.670746,26.352362,        153P0000410
12.217376,-28.918467,24.642063,11.649288,-28.275169,23.168543,       153P0000411
11.072816,-27.679562,21.792316,10.46804;                             153P0000412
106,2,13,-63.573112,119.38428,39.986916,-65.18502,120.17227,         155P0000413
38.362309,-66.568901,121.20326,37.178825,-68.129677,122.63699,       155P0000414
35.918236,-69.709648,124.14047,34.544125,-71.118584,125.59891,       155P0000415
33.24818,-72.297554,127.02989,32.196102,-73.310165,128.55321,        155P0000416
31.499147,-74.282196,130.30693,31.196222,-75.318253,132.34691,       155P0000417
31.250204,-76.433235,134.57559,31.559429,-77.52903,136.7345,         155P0000418
31.982174,-78.680313,138.95361,32.483257;                            155P0000419
106,2,7,-47.936047,10.27566,37.621986,-49.590435,10.13354,           157P0000420
36.902508,-51.168613,10.136004,36.110512,-53.227856,10.195457,       157P0000421
35.04567,-55.494358,10.321472,33.827106,-57.727768,10.462085,        157P0000422
32.574383,-59.858055,10.484792,31.337315;                            157P0000423
106,2,8,-59.858055,10.484792,31.337315,-61.569908,10.258823,         159P0000424
30.336596,-63.149208,9.594306,29.454937,-64.573631,8.4209051,        159P0000425
28.748026,-65.894524,6.7823801,28.201899,-67.113113,4.8652797,       159P0000426
27.794773,-68.170242,2.9709101,27.505905,-69.180336,1.0214511,       159P0000427
27.274729;                                                           159P0000428
106,2,11,-54.214123,87.843506,63.320751,-56.229897,87.687393,        161P0000429
64.281715,-57.92976,87.751396,64.825096,-59.99736,88.072784,         161P0000430
65.407135,-62.349297,88.586494,66.293747,-64.738304,89.315445,       161P0000431
67.508331,-66.951347,90.243401,69.016502,-68.837608,91.307137,       161P0000432
70.715485,-70.318771,92.400703,72.441101,-71.380882,93.391647,       161P0000433
73.991936,-72.212723,94.349342,75.481796;                            161P0000434
106,2,14,-68.930161,30.521904,54.308716,-69.171799,32.34581,         163P0000435
55.843784,-69.816681,33.932426,56.977924,-70.464561,35.85778,        163P0000436
58.418468,-70.895676,37.781433,59.950962,-71.01059,39.494713,        163P0000437
61.410763,-70.874802,40.982578,62.720718,-70.688934,42.395363,       163P0000438
63.889664,-70.696632,43.94418,64.975487,-71.070107,45.767296,        163P0000439
66.031403,-71.823647,47.827904,67.060257,-72.793945,49.890217,       163P0000440
67.997169,-73.697388,51.586666,68.727432,-74.241096,52.549171,       163P0000441
69.130699;                                                           163P0000442
106,2,13,-48.159924,-17.250248,25.662239,-47.649937,-18.192863,      165P0000443
23.480244,-47.166122,-19.46093,21.745943,-46.82695,-21.177217,       165P0000444
19.920513,-46.838409,-22.883348,18.104609,-47.246788,-24.432337,     165P0000445
16.495882,-47.894901,-25.862082,15.118661,-48.495277,-27.331396,     165P0000446
13.865355,-48.771362,-28.990028,12.599984,-48.596291,-30.850761,     165P0000447
11.268217,-48.059074,-32.73119,9.9567986,-47.42416,-34.298058,       165P0000448
8.8724737,-47.003372,-35.195431,8.252284;                            165P0000449
106,2,9,62.844906,89.630898,52.998016,65.090965,90.250259,           167P0000450
51.888077,66.814888,91.019699,51.001316,68.686272,92.27037,          167P0000451
49.828468,70.675789,93.871506,48.292801,72.522415,95.707581,         167P0000452
46.49522,74.045395,97.598877,44.611687,75.161919,99.319046,          167P0000453
42.875992,76.038589,100.98925,41.173267;                             167P0000454
106,2,12,56.079823,38.955936,94.754387,55.966488,40.107754,          169P0000455
95.477417,56.123573,41.669422,96.42823,56.240051,43.567249,          169P0000456
97.578484,56.2276,45.434395,98.761635,56.034241,46.986897,           169P0000457
99.932953,55.662373,48.088467,101.18102,55.164936,48.753235,         169P0000458
102.6587,54.623646,49.095406,104.46625,54.120605,49.255955,          169P0000459
106.54649,53.716221,49.341885,108.64919,53.373081,49.419193,         169P0000460
110.88511;                                                           169P0000461
106,2,13,-56.060349,1.440241,52.966614,-57.914379,1.3417188,         171P0000462
54.299591,-59.358425,1.13667,55.779114,-60.950169,0.93374127,        171P0000463
57.653149,-62.674465,0.86241943,59.518574,-64.357826,0.8732636,      171P0000464
61.183228,-65.906021,0.7923398,62.638222,-67.297577,0.39817497,      171P0000465
64.008766,-68.546898,-0.45894411,65.439438,-69.659195,               171P0000466
-1.7541115,66.97493,-70.601166,-3.2563999,68.498688,-71.301552,      171P0000467
-4.591918,69.761086,-71.678741,-5.3792634,70.483208;                 171P0000468
106,2,14,-56.060349,1.440241,52.966614,-58.173496,1.2512934,         173P0000469
51.946522,-59.551125,1.1391729,51.056873,-61.282822,0.97163475,      173P0000470
49.942566,-63.096977,0.74018979,48.8022,-64.795013,0.42447454,       173P0000471
47.813351,-66.306534,-0.0058019925,47.093929,-67.691742,             173P0000472
-0.58191097,46.684139,-69.091148,-1.3218652,46.551956,               173P0000473
-70.642776,-2.2153475,46.617355,-72.399918,-3.2135363,46.784832,     173P0000474
-74.281952,-4.2287169,46.972366,-76.078552,-5.1457376,47.127918,     173P0000475
-77.90403,-6.0322747,47.255001;                                      173P0000476
106,2,14,-68.930161,30.521904,54.308716,-69.958984,30.006622,        175P0000477
55.315056,-71.07225,29.151567,56.135281,-72.550423,27.947529,        175P0000478
57.100212,-74.143318,26.830271,58.190079,-75.696846,25.985182,       175P0000479
59.304024,-77.151863,25.459316,60.373009,-78.545242,25.157591,       175P0000480
61.366356,-79.971153,24.893475,62.284065,-81.518127,24.473936,       175P0000481
63.139225,-83.207153,23.785503,63.938126,-84.95565,22.848148,        175P0000482
64.666206,-86.582619,21.816147,65.285156,-88.204643,20.66732,        175P0000483
65.863922;                                                           175P0000484
106,2,10,54.975361,-24.197189,34.453842,53.240337,-25.556501,        177P0000485
34.044258,52.131794,-26.694153,33.538498,50.573307,-28.173887,       177P0000486
32.82177,48.683758,-29.783964,31.944048,46.6106,-31.323809,          177P0000487
30.970259,44.51968,-32.642529,29.976992,42.582497,-33.659428,        177P0000488
29.04702,40.96162,-34.36227,28.261858,39.490917,-34.883289,          177P0000489
27.543894;                                                           177P0000490
106,2,14,-46.19178,91.343819,38.109314,-47.911598,90.476601,         179P0000491
36.648567,-48.93848,90.002121,35.227436,-49.745174,89.721085,        179P0000492
33.392311,-50.516895,89.560715,31.363108,-51.15662,89.631462,        179P0000493
29.354073,-51.66745,90.004028,27.510469,-52.147087,90.69352,         179P0000494
25.892284,-52.74213,91.657242,24.487623,-53.579224,92.805084,        179P0000495
23.247671,-54.699661,94.018105,22.128038,-56.023415,95.169487,       179P0000496
21.120199,-57.358017,96.142876,20.261806,-58.759281,97.028473,       179P0000497
19.452259;                                                           179P0000498
106,2,5,-35.050892,45.834045,22.795732,-36.56123,47.583408,          181P0000499
22.063055,-37.65654,49.109226,21.669111,-39.198841,50.999367,        181P0000500
20.967142,-41.136349,52.948631,19.842937;                            181P0000501
106,2,6,-41.136349,52.948631,19.842937,-43.132767,54.500214,         183P0000502
18.424097,-45.215431,55.615887,16.657301,-47.149105,56.213043,       183P0000503
14.766848,-48.770031,56.397308,13.00186,-50.243137,56.315842,        183P0000504
11.255948;                                                           183P0000505
106,2,11,69.889145,40.311478,72.594261,70.622856,41.562981,          185P0000506
74.914764,71.216309,42.090771,76.133331,72.111618,42.823135,         185P0000507
77.715141,73.297592,43.697685,79.426636,74.736542,44.644009,         185P0000508
81.042236,76.355324,45.59137,82.388954,78.043617,46.475212,          185P0000509
83.375015,79.661461,47.241543,83.996109,81.055458,47.848949,         185P0000510
84.318832,82.3526,48.3755,84.463882;                                 185P0000511
106,2,13,71.890648,1.3790759,36.152412,73.169113,1.7844459,          187P0000512
36.87751,74.650131,2.184732,37.697887,76.467484,2.6576259,           187P0000513
38.500748,78.328934,3.1024139,39.015606,80.064323,3.4478045,         187P0000514
39.153221,81.663506,3.6693609,39.042904,83.229172,3.7863307,         187P0000515
38.957573,84.871696,3.8419213,39.164413,86.602219,3.8780851,         187P0000516
39.776882,88.280556,3.9171422,40.68338,89.646339,3.9577651,          187P0000517
41.589672,90.419296,3.9847412,42.155067;                             187P0000518
106,2,15,53.190578,-2.7849939,46.827793,54.666809,-1.1803489,        189P0000519
45.485508,55.839108,0.0070454851,44.784397,57.082336,1.3220019,      189P0000520
44.297901,58.304417,2.83549,43.780796,59.311905,4.4247842,           189P0000521
43.299217,60.016014,6.0075989,42.894917,60.450367,7.5515041,         189P0000522
42.578606,60.747292,9.0649157,42.333263,61.081463,10.573565,         189P0000523
42.125793,61.600464,12.091234,41.922607,62.366089,13.595411,         189P0000524
41.703796,63.326385,15.01677,41.471115,64.327751,16.246611,          189P0000525
41.247391,65.400772,17.404484,41.017803;                             189P0000526
106,2,11,-41.637257,104.25163,38.770802,-40.633068,105.10796,        191P0000527
36.348816,-39.535667,105.78658,34.741898,-38.167339,106.71014,       191P0000528
33.206821,-36.889782,107.98409,31.583904,-35.982178,109.59049,       191P0000529
30.107788,-35.617298,111.45966,28.950682,-35.820015,113.4642,        191P0000530
28.191442,-36.465591,115.42773,27.810192,-37.317905,117.14756,       191P0000531
27.708872,-38.327393,118.76836,27.780632;                            191P0000532
106,2,7,53.888828,109.82159,46.824791,55.677666,111.67834,           193P0000533
48.768272,56.798088,113.27132,50.359459,58.261993,115.35265,         193P0000534
52.43845,59.846508,117.60548,54.688728,61.31041,119.68681,           193P0000535
56.767715,62.131607,120.85436,57.933952;                             193P0000536
106,2,2,62.131607,120.85436,57.933952,63.037201,122.14191,           195P0000537
59.220047;                                                           195P0000538
106,2,14,-68.930161,30.521904,54.308716,-69.858521,31.738838,        197P0000539
55.112431,-71.051865,32.686234,55.929218,-72.472878,33.816387,       197P0000540
56.88242,-73.853485,34.891418,57.765797,-75.043724,35.732983,        197P0000541
58.449642,-76.06089,36.268448,58.920349,-77.060303,36.534115,        197P0000542
59.268715,-78.240334,36.638233,59.633606,-79.724037,36.702534,       197P0000543
60.126781,-81.470589,36.808331,60.7724,-83.257545,36.969257,         197P0000544
61.487839,-84.744362,37.139389,62.11396,-85.592514,37.249157,        197P0000545
62.481045;                                                           197P0000546
106,2,14,-36.361408,40.60421,-4.5729427,-35.996445,40.526539,        199P0000547
-3.0601406,-35.700485,40.46035,-1.5536023,-35.482727,40.400017,      199P0000548
0.053206857,-35.399632,40.343533,1.5963846,-35.448135,40.271099,     199P0000549
3.0134125,-35.566956,40.149818,4.3450365,-35.660915,39.945763,       199P0000550
5.6949658,-35.63913,39.639313,7.1637449,-35.452469,39.238041,        199P0000551
8.7831707,-35.115784,38.781761,10.477542,-34.706089,38.336929,       199P0000552
12.067815,-34.337029,37.981335,13.318354,-33.844471,37.40733,        199P0000553
14.842885;                                                           199P0000554
106,2,13,45.910557,80.916512,42.153812,44.093891,82.573509,          201P0000555
42.794113,42.875439,83.779449,42.955776,41.479813,85.249413,         201P0000556
43.138767,40.211246,86.748383,43.302448,39.230442,88.155548,         201P0000557
43.427441,38.51025,89.492195,43.521275,37.885777,90.871361,          201P0000558
43.610188,37.170204,92.396339,43.721542,36.27562,94.061424,          201P0000559
43.86599,35.277054,95.707756,44.028564,34.387775,97.059914,          201P0000560
44.173298,33.859512,97.828186,44.25914;                              201P0000561
106,2,10,65.340614,63.74836,30.601805,65.53376,63.126171,            203P0000562
29.154665,65.961281,62.656738,27.760757,66.620911,62.232227,         203P0000563
25.861288,67.257439,61.914455,23.593355,67.754707,61.808418,         203P0000564
21.148197,68.048347,61.952248,18.726707,68.138657,62.304749,         203P0000565
16.522259,68.082901,62.75811,14.70594,67.928772,63.294369,           203P0000566
13.080121;                                                           203P0000567
106,2,12,79.715172,91.978127,80.462166,81.043961,92.217728,          205P0000568
80.116814,82.221191,92.519196,79.951141,83.564682,93.06723,          205P0000569
80.066833,85.212524,93.723595,80.157288,87.058426,94.437317,         205P0000570
80.188675,88.987656,95.157837,80.13887,90.885399,95.840012,          205P0000571
80.003464,92.644066,96.447472,79.797646,94.1689,96.953995,           205P0000572
79.553642,95.381798,97.342949,79.31424,96.438797,97.671249,          205P0000573
79.070976;                                                           205P0000574
106,2,14,-48.56575,-1.950182,21.028889,-49.764122,-2.0898712,        207P0000575
20.385868,-50.817448,-2.0559311,19.504328,-52.105461,-1.94675,       207P0000576
18.261681,-53.532047,-1.9098792,16.979845,-54.940414,-1.9927832,     207P0000577
15.795128,-56.215767,-2.2158241,14.73504,-57.299522,-2.567224,       207P0000578
13.721282,-58.185402,-3.0077589,12.617333,-58.901356,-3.4827919,     207P0000579
11.302269,-59.485523,-3.9369736,9.7418795,-59.965614,-4.3264689,     207P0000580
8.0286293,-60.348503,-4.6250196,6.3734236,-60.694084,-4.8716273,     207P0000581
4.6815157;                                                           207P0000582
106,2,10,68.356697,-11.435657,73.069717,70.284622,-11.432447,        209P0000583
72.430855,71.721474,-11.107854,71.990341,73.626953,-10.855494,       209P0000584
71.519974,75.761063,-10.863126,71.17865,77.885536,-11.257877,        209P0000585
71.086273,79.803879,-12.055391,71.284698,81.385063,-13.143435,       209P0000586
71.72348,82.566353,-14.306116,72.274826,83.526482,-15.559987,        209P0000587
72.920326;                                                           209P0000588
106,2,14,63.963196,-9.1029301,61.391586,65.578148,-8.8280516,        211P0000589
60.473656,66.30407,-8.6390266,59.919636,67.346245,-8.3638201,        211P0000590
59.195805,68.652245,-8.0124197,58.410591,70.157814,-7.5980487,       211P0000591
57.678627,71.790878,-7.1369572,57.101826,73.47583,-6.6480365,        211P0000592
56.752865,75.137512,-6.1522083,56.663784,76.704811,-5.6715889,       211P0000593
56.821686,78.113472,-5.2284451,57.172203,79.308197,-4.8440037,       211P0000594
57.630093,80.243958,-4.5372005,58.095028,81.050262,-4.26864,         211P0000595
58.574104;                                                           211P0000596
106,2,8,62.969597,-22.779001,55.977077,62.627823,-23.514095,         213P0000597
58.202888,61.96558,-24.102837,60.264679,61.346401,-24.964977,        213P0000598
62.667664,61.324333,-26.179049,65.031464,62.028076,-27.641798,       213P0000599
67.002815,63.246712,-29.133615,68.412102,64.91433,-30.714474,        213P0000600
69.453896;                                                           213P0000601
106,2,13,57.746922,-15.957281,27.48984,57.529442,-15.301897,         215P0000602
26.073008,57.563038,-14.77964,24.761553,57.716621,-14.259726,        215P0000603
23.147921,57.825577,-13.78898,21.4112,57.907547,-13.421041,          215P0000604
19.738611,58.043495,-13.128476,18.232378,58.350613,-12.819744,       215P0000605
16.906717,58.930141,-12.387675,15.719507,59.811424,-11.768359,       215P0000606
14.62178,60.917103,-10.98415,13.6019,62.06741,-10.150772,            215P0000607
12.70511,63.298683,-9.2401333,11.834516;                             215P0000608
106,2,10,-41.136349,52.948631,19.842937,-39.866741,54.051067,        217P0000609
19.57725,-38.753033,55.038486,19.525835,-37.369629,56.421707,        217P0000610
19.328882,-35.972687,58.091095,18.898434,-34.785393,59.913269,       217P0000611
18.190016,-33.944942,61.741291,17.231441,-33.478416,63.426384,       217P0000612
16.129948,-33.313599,64.83017,15.054116,-33.341862,66.09903,         217P0000613
13.956391;                                                           217P0000614
106,2,13,46.239586,48.470669,48.974102,43.913643,47.969273,          219P0000615
47.273399,42.638809,47.976746,46.359238,41.0937,48.032238,           219P0000616
45.150295,39.548389,48.169399,43.807568,38.160297,48.408569,         219P0000617
42.49712,36.925518,48.748337,41.361824,35.706371,49.164558,          219P0000618
40.499107,34.322769,49.616646,39.948696,32.666512,50.058205,         219P0000619
39.692177,30.786804,50.447746,39.663673,28.907297,50.755619,         219P0000620
39.768955,26.92724,51.018276,39.95509;                               219P0000621
106,2,12,43.155056,42.19701,35.710194,42.938953,40.917233,           221P0000622
35.143753,42.742798,39.515621,34.279678,42.394375,37.69091,          221P0000623
33.236668,41.865337,35.798538,32.405788,41.195786,34.058788,         221P0000624
31.780584,40.480457,32.578243,31.12326,39.834259,31.366287,          221P0000625
30.133549,39.345673,30.388083,28.671316,39.043957,29.618965,         221P0000626
26.899286,38.898228,29.070601,25.255043,38.848213,28.780546,         221P0000627
24.25877;                                                            221P0000628
106,2,10,-59.858055,10.484792,31.337315,-60.163212,11.108599,        223P0000629
30.58197,-60.511478,11.615611,29.732559,-61.088711,12.079456,        223P0000630
28.347952,-61.783478,12.637747,26.681416,-62.539494,13.245255,       223P0000631
24.867964,-63.295509,13.852762,23.054512,-63.990276,14.411054,       223P0000632
21.387976,-64.567505,14.874898,20.003366,-65.088036,15.293177,       223P0000633
18.754778;                                                           223P0000634
106,2,10,62.969597,-22.779001,55.977077,64.458397,-22.682512,        225P0000635
55.930092,65.567413,-22.713505,55.771946,66.852242,-22.84593,        225P0000636
55.47319,68.398674,-23.00532,55.113598,70.081436,-23.178759,         225P0000637
54.722309,71.764206,-23.3522,54.33102,73.310638,-23.511587,          225P0000638
53.971428,74.595467,-23.644012,53.672672,75.754074,-23.76343,        225P0000639
53.403263;                                                           225P0000640
106,2,10,-66.989059,69.135254,32.300076,-67.269913,68.861603,        227P0000641
31.305082,-67.472488,68.762802,30.197638,-67.677414,68.885597,       227P0000642
28.531849,-68.056854,68.869919,26.709442,-68.634544,68.649956,       227P0000643
24.952953,-69.38401,68.218536,23.432606,-70.224205,67.635597,        227P0000644
22.243647,-71.032593,67.015457,21.407499,-71.849167,66.348381,       227P0000645
20.773926;                                                           227P0000646
106,2,11,62.131607,120.85436,57.933952,61.048424,121.2739,           229P0000647
58.429691,60.488426,121.64292,58.750191,59.696468,122.16481,         229P0000648
59.203442,58.726524,122.80399,59.75856,57.644695,123.51691,          229P0000649
60.377716,56.5247,124.25497,61.018711,55.442867,124.96788,           229P0000650
61.637863,54.472923,125.60706,62.192982,53.680969,126.12895,         229P0000651
62.646233,52.976032,126.59349,63.049683;                             229P0000652
S      1G      3D    230P    652                                        T0000001
